<?xml version="1.0" standalone="no"?>
<!DOCTYPE svg PUBLIC "-//W3C//DTD SVG 20010904//EN"
 "http://www.w3.org/TR/2001/REC-SVG-20010904/DTD/svg10.dtd">
<svg version="1.0" xmlns="http://www.w3.org/2000/svg"
 width="804.000000pt" height="804.000000pt" viewBox="0 0 804.000000 804.000000"
 preserveAspectRatio="xMidYMid meet">
<metadata>
Created by potrace 1.14, written by Peter Selinger 2001-2017
</metadata>
<g transform="translate(0.000000,804.000000) scale(0.100000,-0.100000)"
fill="#000000" stroke="none">
<path d="M2109 7440 c-129 -27 -257 -97 -339 -187 -64 -70 -87 -108 -170 -278
-199 -409 -266 -547 -315 -650 -29 -60 -101 -209 -160 -330 -59 -121 -131
-269 -160 -330 -29 -60 -94 -195 -145 -300 -51 -104 -121 -248 -155 -320 -34
-71 -103 -213 -153 -315 -84 -173 -132 -273 -302 -625 -37 -77 -97 -200 -134
-274 -36 -74 -66 -140 -66 -147 0 -6 33 -33 73 -59 l72 -48 415 -3 c228 -2
991 -6 1694 -9 704 -3 1281 -7 1283 -9 3 -3 81 -259 103 -341 5 -16 22 -75 38
-130 93 -308 183 -612 187 -625 2 -8 40 -139 85 -290 45 -151 94 -318 110
-370 15 -52 69 -234 120 -405 51 -170 96 -323 100 -340 4 -16 16 -57 27 -89
l18 -60 261 -166 260 -166 35 22 c19 12 259 165 534 340 275 174 536 340 580
368 102 66 394 252 528 336 57 36 139 88 183 116 43 28 273 174 509 324 597
379 587 372 641 435 239 275 218 649 -51 909 -110 106 -263 179 -445 211 -40
7 -525 11 -2255 20 -660 3 -1203 9 -1206 13 -4 4 -29 81 -57 172 -28 91 -130
422 -227 735 -291 940 -385 1244 -425 1375 -174 572 -335 1084 -355 1127 -125
276 -428 426 -736 363z m161 -285 c102 -27 205 -104 255 -190 20 -34 59 -137
70 -185 2 -8 22 -78 45 -155 23 -77 59 -198 80 -270 21 -71 104 -353 185 -625
81 -272 156 -524 166 -560 10 -36 34 -117 53 -180 155 -520 200 -669 206 -695
5 -16 22 -75 38 -130 113 -376 142 -478 142 -489 0 -12 -95 -13 -567 -10 -313
2 -1051 6 -1642 8 -590 3 -1075 6 -1077 8 -2 2 20 51 47 108 28 58 66 137 84
175 18 39 71 149 117 245 47 96 108 222 136 280 27 58 87 182 132 275 168 345
233 482 275 570 23 50 76 160 117 245 42 85 103 211 136 280 33 69 99 206 147
305 48 99 102 212 120 250 133 285 287 585 316 616 108 116 270 163 419 124z
m4095 -3609 c560 -3 900 -9 935 -16 337 -65 480 -443 252 -669 -34 -33 -435
-279 -1444 -883 -768 -461 -1403 -840 -1410 -843 -8 -3 -15 0 -15 7 0 7 -21
78 -46 158 -61 193 -367 1181 -372 1200 -2 8 -71 233 -153 500 -83 267 -155
501 -160 521 l-10 36 772 -3 c424 -2 1167 -5 1651 -8z"/>
</g>
</svg>
